<?xml version="1.0" standalone="no"?>
<!DOCTYPE svg PUBLIC "-//W3C//DTD SVG 20010904//EN"
 "http://www.w3.org/TR/2001/REC-SVG-20010904/DTD/svg10.dtd">
<svg version="1.0" xmlns="http://www.w3.org/2000/svg"
 width="734.000000pt" height="729.000000pt" viewBox="0 0 734.000000 729.000000"
 preserveAspectRatio="xMidYMid meet">

<g transform="translate(0.000000,729.000000) scale(0.100000,-0.100000)"
fill="#000000" stroke="none">
<path d="M0 3645 l0 -3645 3670 0 3670 0 0 3645 0 3645 -3670 0 -3670 0 0
-3645z m3890 3624 c640 -41 1308 -271 1825 -629 66 -46 130 -92 143 -103 28
-26 28 -54 1 -62 -21 -7 -52 12 -214 130 -85 62 -325 197 -467 264 -57 26
-119 55 -138 64 -75 36 -359 129 -508 167 -506 129 -1036 140 -1582 35 -551
-107 -1165 -407 -1595 -779 -135 -117 -371 -364 -483 -506 -321 -407 -558
-902 -668 -1394 -41 -182 -45 -206 -60 -321 -37 -294 -39 -695 -4 -925 26
-177 35 -226 67 -360 96 -410 275 -820 506 -1163 47 -70 88 -135 92 -146 7
-23 -18 -45 -42 -37 -16 6 -183 249 -231 336 -147 272 -231 460 -310 700 -47
140 -64 206 -109 410 -28 132 -54 340 -62 505 -26 550 62 1082 260 1563 296
718 802 1317 1448 1715 540 332 1119 509 1751 536 96 4 184 9 195 9 11 1 94
-3 185 -9z m3120 -284 c6 -8 8 -20 4 -27 -5 -7 -1502 -1505 -3327 -3328 -2344
-2341 -3326 -3315 -3341 -3315 -13 0 -22 7 -24 20 -2 16 802 826 3320 3343
1828 1827 3330 3322 3339 3322 9 0 22 -7 29 -15z m-407 -1213 c397 -553 624
-1175 676 -1852 49 -636 -76 -1276 -364 -1865 -122 -250 -238 -431 -434 -680
-110 -140 -370 -401 -515 -518 -575 -462 -1226 -729 -1955 -803 -248 -25 -625
-16 -871 21 -567 85 -1084 292 -1557 623 -116 81 -143 108 -128 132 13 22 46
7 151 -67 525 -368 1111 -585 1741 -644 112 -10 561 -14 593 -4 8 2 69 9 135
15 351 32 854 182 1194 356 358 182 639 388 929 681 358 361 609 749 788 1218
221 579 288 1230 188 1835 -30 179 -96 445 -152 610 -101 294 -281 639 -473
900 -42 58 -78 112 -79 120 -5 31 1 40 24 40 20 0 41 -23 109 -118z"/>
</g>
</svg>
